<?xml version="1.0" standalone="no"?>
<!DOCTYPE svg PUBLIC "-//W3C//DTD SVG 20010904//EN"
 "http://www.w3.org/TR/2001/REC-SVG-20010904/DTD/svg10.dtd">
<svg version="1.0" xmlns="http://www.w3.org/2000/svg"
 width="700.000000pt" height="700.000000pt" viewBox="0 0 700.000000 700.000000"
 preserveAspectRatio="xMidYMid meet">
<metadata>
Created by potrace 1.14, written by Peter Selinger 2001-2017
</metadata>
<g transform="translate(0.000000,700.000000) scale(0.100000,-0.100000)"
fill="#000000" stroke="none">
<path d="M0 3500 l0 -3500 3500 0 3500 0 0 3500 0 3500 -3500 0 -3500 0 0
-3500z m3143 1106 c45 -19 68 -48 74 -94 5 -35 -7 -62 -110 -264 -231 -449
-659 -1349 -683 -1437 -30 -106 0 -138 99 -106 101 32 285 147 471 292 l99 78
64 159 c35 88 178 414 318 725 226 501 259 570 295 602 72 66 190 77 244 22
47 -46 38 -88 -57 -275 -45 -90 -131 -269 -191 -398 -60 -129 -136 -288 -168
-352 -32 -65 -56 -118 -54 -118 2 0 34 21 72 46 189 127 376 180 506 144 96
-27 186 -123 207 -221 18 -83 -23 -256 -95 -403 -19 -37 -34 -74 -34 -81 0
-19 52 -28 113 -20 131 17 270 69 411 154 72 43 89 49 110 41 14 -5 30 -18 35
-29 28 -52 -2 -157 -59 -205 -48 -40 -258 -142 -365 -177 -89 -29 -113 -32
-220 -33 -107 -1 -125 1 -164 22 l-44 23 -71 -69 c-92 -90 -138 -124 -222
-166 -119 -60 -207 -79 -353 -74 -113 3 -131 7 -177 30 -58 31 -117 91 -139
145 -9 21 -21 70 -28 110 l-12 72 -70 -55 c-224 -180 -412 -271 -575 -281
-111 -7 -164 8 -211 57 -65 68 -75 195 -28 353 40 136 761 1673 811 1730 51
59 135 81 201 53z"/>
<path d="M3785 3356 c-201 -50 -394 -256 -425 -454 -25 -155 43 -224 199 -202
174 24 365 196 421 378 24 78 26 181 4 227 -28 60 -95 77 -199 51z"/>
</g>
</svg>
